<?xml version="1.0" encoding="UTF-8"?>
<svg xmlns="http://www.w3.org/2000/svg" version="1.1" viewBox="0 0 141.73 141.73">
  <defs>
    <style>
      .cls-1 {
        fill: #f5f3f5;
      }

      .cls-2 {
        fill: #da79b0;
      }

      .cls-3 {
        fill: #5d5aa9;
      }
    </style>
  </defs>
  <!-- Generator: Adobe Illustrator 28.7.1, SVG Export Plug-In . SVG Version: 1.2.0 Build 142)  -->
  <g>
    <g id="Ebene_1">
      <path class="cls-2" d="M49.43,44.97h65.9c8.76,0,15.86,7.1,15.86,15.86v46.48c0,6.26-3.64,11.66-8.91,14.24v12.53c0,3.41-3.06,5.32-5.17,3.23l-13.57-13.5c-.2-.2-.36-.41-.51-.64h-53.61c-8.76,0-15.86-7.1-15.86-15.86v-46.48c0-8.76,7.1-15.86,15.86-15.86Z"/>
      <g>
        <path class="cls-1" d="M84.09,81.55l.4.73,4.43,8.17s-9.59,6.33-13.17,8.09c-3.58,1.75-19.72,10.64-23.47,8.26s5.84-11.17,18.83-18.21l12.99-7.04Z"/>
        <path class="cls-1" d="M90.71,89.37l-4.78-8.81s.85-7.05,6.7-9.72,10.25-.95,11.74-.28,5.75,1.34,8.53-2.43c0,0,2.28,13.06-4.01,18.6-5.84,5.15-13.99,8.15-18.18,2.64Z"/>
      </g>
      <path class="cls-3" d="M85.6,4.84H23.45c-8.26,0-14.96,6.7-14.96,14.96v43.84c0,5.91,3.43,11,8.4,13.43v11.82c0,3.21,2.89,5.02,4.87,3.05l12.8-12.73c.19-.18.34-.39.48-.6h50.56c8.26,0,14.96-6.7,14.96-14.96V19.8c0-8.26-6.7-14.96-14.96-14.96Z"/>
      <path class="cls-1" d="M77.82,32.66l-4.4-7.63c-.28-.49-.91-.66-1.4-.38l-10.53,6.08c-.68.39-1.54-.1-1.54-.89v-12.16c0-.57-.46-1.03-1.03-1.03h-8.81c-.57,0-1.03.46-1.03,1.03v12.16c0,.79-.85,1.28-1.54.89l-10.53-6.08c-.49-.28-1.12-.12-1.4.38l-4.4,7.63c-.28.49-.12,1.12.38,1.4l10.53,6.08c.68.39.68,1.38,0,1.78l-10.53,6.08c-.49.28-.66.91-.38,1.4l4.4,7.63c.28.49.91.66,1.4.38l10.53-6.08c.68-.39,1.54.1,1.54.89v12.16c0,.57.46,1.03,1.03,1.03h8.81c.57,0,1.03-.46,1.03-1.03v-12.16c0-.79.85-1.28,1.54-.89l10.53,6.08c.49.28,1.12.12,1.4-.38l4.4-7.63c.28-.49.12-1.12-.38-1.4l-10.53-6.08c-.68-.39-.68-1.38,0-1.78l10.53-6.08c.49-.28.66-.91.38-1.4Z"/>
    </g>
  </g>
</svg>
